<svg width="29" height="30" viewBox="0 0 29 30" fill="none" xmlns="http://www.w3.org/2000/svg">
<path d="M22.9582 11.25C22.9582 13.0625 22.4386 14.725 21.5445 16.1125C20.8893 17.1234 20.037 17.9815 19.0423 18.6316C18.0476 19.2817 16.9326 19.7095 15.7686 19.8875C15.3578 19.9625 14.9349 20 14.4999 20C14.0649 20 13.642 19.9625 13.2311 19.8875C12.0672 19.7095 10.9522 19.2817 9.95749 18.6316C8.96282 17.9815 8.11053 17.1234 7.45531 16.1125C6.52768 14.6729 6.03551 12.9801 6.04156 11.25C6.04156 6.4125 9.82364 2.5 14.4999 2.5C19.1761 2.5 22.9582 6.4125 22.9582 11.25Z" stroke="#111111" stroke-width="1.5" stroke-linecap="round" stroke-linejoin="round"/>
<path d="M25.6772 23.0875L23.6834 23.575C23.2363 23.6875 22.8859 24.0375 22.7893 24.5L22.3663 26.3375C22.3145 26.5631 22.203 26.7692 22.0443 26.933C21.8857 27.0968 21.6861 27.2117 21.468 27.2648C21.2498 27.318 21.0217 27.3074 20.809 27.2341C20.5964 27.1609 20.4076 27.0279 20.2638 26.85L14.5001 20L8.73634 26.8625C8.59257 27.0404 8.40382 27.1734 8.19117 27.2466C7.97853 27.3199 7.75038 27.3305 7.53223 27.2773C7.31408 27.2242 7.11452 27.1093 6.95587 26.9455C6.79722 26.7817 6.68572 26.5756 6.63384 26.35L6.21092 24.5125C6.15952 24.2877 6.04866 24.0821 5.89074 23.9187C5.73283 23.7554 5.53409 23.6407 5.31676 23.5875L3.32301 23.1C3.11412 23.0482 2.92229 22.9399 2.76717 22.7862C2.61204 22.6325 2.4992 22.4389 2.44019 22.2252C2.38117 22.0116 2.37812 21.7855 2.43133 21.5702C2.48454 21.3549 2.5921 21.1581 2.74301 21L7.45551 16.125C8.11072 17.1359 8.96302 17.994 9.95769 18.6441C10.9524 19.2942 12.0674 19.722 13.2313 19.9C13.6422 19.975 14.0651 20.0125 14.5001 20.0125C14.9351 20.0125 15.358 19.975 15.7688 19.9C18.1734 19.5375 20.2397 18.125 21.5447 16.125L26.2572 21C26.9218 21.675 26.5955 22.8625 25.6772 23.0875ZM15.2009 7.475L15.9138 8.95C16.0105 9.15 16.2643 9.35 16.4938 9.3875L17.7868 9.6125C18.6084 9.75 18.8018 10.375 18.2097 10.9875L17.2068 12.025C17.0376 12.2 16.9409 12.5375 17.0013 12.7875L17.2913 14.075C17.5209 15.0875 17.0013 15.4875 16.1313 14.95L14.923 14.2125C14.8003 14.1448 14.6633 14.1093 14.5243 14.1093C14.3852 14.1093 14.2482 14.1448 14.1255 14.2125L12.9172 14.95C12.0472 15.475 11.5276 15.0875 11.7572 14.075L12.0472 12.7875C12.0955 12.55 12.0109 12.2 11.8418 12.025L10.8388 10.9875C10.2468 10.375 10.4401 9.7625 11.2618 9.6125L12.5547 9.3875C12.7722 9.35 13.0259 9.15 13.1226 8.95L13.8355 7.475C14.1859 6.675 14.8143 6.675 15.2009 7.475Z" stroke="#111111" stroke-width="1.5" stroke-linecap="round" stroke-linejoin="round"/>
</svg>
