<svg width="38" height="33" viewBox="0 0 38 33" fill="none" xmlns="http://www.w3.org/2000/svg">
<path d="M32.3765 5.81641C29.9233 5.31459 25.9678 4.63593 24.8627 6.97048C21.4854 12.8843 19.5464 19.0737 18.0869 21.7293C18.2402 21.8188 24.9672 25.7644 25.443 25.9979C26.9553 26.7398 29.4802 26.4059 30.5558 24.4448C33.5397 19.0043 32.7812 20.4207 35.9516 14.8695C38.0003 11.2821 35.4388 6.44274 32.3765 5.81641Z" fill="#EA4335"/>
<path d="M11.1514 29.8247C9.50417 27.9197 8.29582 24.1083 9.74324 21.9737C13.9716 14.5696 17.3565 10.0875 20.0186 5.59473C21.4302 6.41869 27.0862 9.66204 27.4628 9.99622C28.7265 11.1169 29.7733 13.2582 28.6311 15.1804C25.4624 20.5131 24.1623 22.9264 20.9417 28.5658C18.8925 32.1542 13.2093 32.2048 11.1514 29.8247Z" fill="#FDBD00"/>
<path d="M26.3179 2.04187C23.0227 0.0952346 21.3289 0.35036 19.5568 0.637669C17.9457 1.04481 15.7673 2.22841 14.849 3.74901C12.5325 7.58479 10.3383 11.3804 7.49587 16.524C6.6204 18.1082 7.27024 20.0545 8.07818 20.8269C8.62572 21.3506 12.6544 23.5977 13.3978 23.9208C14.4492 24.3777 16.0243 24.0598 16.9744 23.0712C17.2368 22.7981 23.2469 12.362 24.9394 9.28396C25.6539 7.98506 26.2974 7.26624 27.3657 6.57335C29.4296 5.47849 31.041 5.33725 33.5091 6.24964C33.5091 6.24964 28.1373 3.1019 26.3179 2.04187Z" fill="#2DA94F"/>
<path d="M5.1158 26.5336C1.80045 24.6219 1.1721 23.0115 0.532145 21.3162C0.0754793 19.7024 0.000218302 17.2033 0.843698 15.6388C2.97156 11.693 2.95626 11.673 5.94135 6.61257C6.86071 5.05401 8.85304 4.64984 9.91875 4.97089C10.6411 5.18837 14.5803 7.59198 15.2287 8.0813C16.1461 8.7734 16.6612 10.3113 16.2894 11.6376C16.1866 12.0038 12.4209 18.6849 10.6306 21.7059C9.87486 22.9807 9.58093 23.9034 9.52158 25.1852C9.61554 27.5396 10.3002 29.0209 12.316 30.7257C12.316 30.7257 6.9335 27.5964 5.1158 26.5336Z" fill="#297AEC"/>
</svg>
