<svg width="34" height="34" viewBox="0 0 34 34" fill="none" xmlns="http://www.w3.org/2000/svg">
<path d="M24.0268 8.74083C26.8601 10.71 28.8151 13.8408 29.2118 17.4533M4.9443 17.5242C5.12241 15.7918 5.66978 14.1178 6.54954 12.6149C7.42929 11.112 8.62098 9.8151 10.0443 8.81166M11.6026 29.665C13.246 30.5008 15.116 30.9683 17.0851 30.9683C18.9835 30.9683 20.7685 30.5433 22.3693 29.7642M17.0851 10.9083C18.1296 10.9083 19.1314 10.4934 19.87 9.75482C20.6085 9.01624 21.0235 8.01451 21.0235 6.97C21.0235 5.92548 20.6085 4.92375 19.87 4.18517C19.1314 3.44659 18.1296 3.03166 17.0851 3.03166C16.0406 3.03166 15.0389 3.44659 14.3003 4.18517C13.5617 4.92375 13.1468 5.92548 13.1468 6.97C13.1468 8.01451 13.5617 9.01624 14.3003 9.75482C15.0389 10.4934 16.0406 10.9083 17.0851 10.9083ZM6.84263 28.22C7.88714 28.22 8.88887 27.8051 9.62745 27.0665C10.366 26.3279 10.781 25.3262 10.781 24.2817C10.781 23.2371 10.366 22.2354 9.62745 21.4968C8.88887 20.7583 7.88714 20.3433 6.84263 20.3433C5.79812 20.3433 4.79639 20.7583 4.05781 21.4968C3.31923 22.2354 2.9043 23.2371 2.9043 24.2817C2.9043 25.3262 3.31923 26.3279 4.05781 27.0665C4.79639 27.8051 5.79812 28.22 6.84263 28.22ZM27.1576 28.22C28.2021 28.22 29.2039 27.8051 29.9425 27.0665C30.681 26.3279 31.096 25.3262 31.096 24.2817C31.096 23.2371 30.681 22.2354 29.9425 21.4968C29.2039 20.7583 28.2021 20.3433 27.1576 20.3433C26.1131 20.3433 25.1114 20.7583 24.3728 21.4968C23.6342 22.2354 23.2193 23.2371 23.2193 24.2817C23.2193 25.3262 23.6342 26.3279 24.3728 27.0665C25.1114 27.8051 26.1131 28.22 27.1576 28.22Z" stroke="#111111" stroke-width="3.5" stroke-linecap="round" stroke-linejoin="round"/>
</svg>
