<svg width="14" height="21" viewBox="0 0 14 21" fill="none" xmlns="http://www.w3.org/2000/svg">
<path d="M13.9999 6.81435C13.9999 6.2381 13.5057 5.74392 12.9295 5.74392H10.9532L6.42391 0.555892C6.01224 0.0617114 5.35348 -0.102871 4.69471 0.0617115L3.1301 0.555892C2.88301 0.6384 2.8005 0.967564 2.96552 1.13215L7.90645 5.82643H0.411672C0.164582 5.82643 0 5.99101 0 6.2381V7.06144C0 7.6377 0.49418 8.13188 1.07043 8.13188H2.22338V12.0849C2.22338 15.0495 3.78799 16.7792 6.42348 16.7792C7.24682 16.7792 7.90602 16.6967 8.72936 16.3675V19.003C8.72936 19.7442 9.30562 20.3205 10.0469 20.3205H11.1998C11.4469 20.3205 11.694 20.0734 11.694 19.8263V8.0498H13.5882C13.8353 8.0498 13.9999 7.88522 13.9999 7.63813V6.81435ZM8.72936 13.8966C8.23518 14.1437 7.57642 14.2262 7.08224 14.2262C5.76471 14.2262 5.10595 13.5674 5.10595 12.0849V8.13188H8.72936V13.8966Z" fill="white"/>
</svg>
