<svg width="24" height="24" viewBox="0 0 24 24" fill="none" xmlns="http://www.w3.org/2000/svg">
<path d="M16.3169 4C18.2458 4 19.7969 5.57 19.7969 7.5C19.7969 9.39 18.3055 10.93 16.4461 11C16.3603 10.99 16.2735 10.99 16.1876 11M18.2359 20C18.9518 19.85 19.6279 19.56 20.1847 19.13C21.7358 17.96 21.7358 16.03 20.1847 14.86C19.6379 14.44 18.9717 14.16 18.2657 14M9.1082 10.87C9.00877 10.86 8.88945 10.86 8.78008 10.87C7.63882 10.831 6.55746 10.3468 5.76499 9.51996C4.97252 8.69308 4.53117 7.58845 4.53441 6.44C4.53441 3.99 6.50313 2 8.94911 2C10.1186 1.97878 11.2487 2.42569 12.0906 3.24241C12.9325 4.05914 13.4173 5.17877 13.4384 6.355C13.4595 7.53124 13.0151 8.66772 12.2031 9.51445C11.391 10.3612 10.2777 10.8488 9.1082 10.87ZM4.13669 14.56C1.73048 16.18 1.73048 18.82 4.13669 20.43C6.87102 22.27 11.3553 22.27 14.0897 20.43C16.4959 18.81 16.4959 16.17 14.0897 14.56C11.3653 12.73 6.88096 12.73 4.13669 14.56Z" stroke="#111111" stroke-width="1.5" stroke-linecap="round" stroke-linejoin="round"/>
</svg>
