<svg width="27" height="30" viewBox="0 0 27 30" fill="none" xmlns="http://www.w3.org/2000/svg">
<path d="M7.63676 6.33183C14.3238 -0.274211 22.4143 -1.99878 25.658 2.52677C28.9017 7.05233 26.0573 16.1411 19.3702 22.7905C12.6832 29.3965 4.59272 31.1211 1.34902 26.5956C-1.89468 22.0671 0.909195 12.9784 7.63676 6.33183Z" fill="#F99D27"/>
<path d="M12.0412 2.80745C11.3207 3.36881 10.5596 3.96778 9.83915 4.68828C3.95361 10.4552 1.54905 18.3836 4.43394 22.3478C7.39697 26.312 14.6454 24.871 20.6119 19.0231C23.8151 15.9009 25.9766 12.255 26.8997 8.89265C27.1804 6.40996 26.8187 4.20795 25.6989 2.52678C23.0541 -0.997599 17.5679 -0.716926 12.0412 2.80745Z" fill="#B02A30"/>
<path d="M20.088 2.6078C20.849 3.36881 20.4092 5.09049 19.0463 6.45336C17.6834 7.77573 15.9618 8.25606 15.2008 7.49505C14.3992 6.73404 14.8796 5.01236 16.2019 3.64948C17.6053 2.2461 19.327 1.84679 20.088 2.6078ZM15.3628 26.0313C12.2406 28.3925 8.99693 29.5557 5.83135 29.0754C7.15372 29.1564 8.23302 27.6749 9.11556 25.713C9.99521 23.7107 10.5566 21.8298 10.9588 20.0676C11.5983 17.3043 11.6388 15.3019 11.3205 14.8621C10.7996 14.1416 9.55828 14.3413 8.1983 15.1428C7.55882 15.5045 6.67628 15.2643 7.71796 14.023C8.75965 12.7411 12.9235 9.69706 14.4455 9.21673C16.0862 8.73639 17.9699 9.37588 17.3275 11.1786C16.8443 12.498 11.0803 27.6343 15.3628 26.0313Z" fill="white"/>
</svg>
