<svg width="25" height="25" viewBox="0 0 25 25" fill="none" xmlns="http://www.w3.org/2000/svg">
<path d="M12.5 0C5.625 0 0 5.625 0 12.5C0 19.375 5.625 25 12.5 25C19.375 25 25 19.375 25 12.5C25 5.625 19.375 0 12.5 0ZM12.5 3.125C17.6875 3.125 21.875 7.3125 21.875 12.5C21.875 17.6875 17.6875 21.875 12.5 21.875C7.3125 21.875 3.125 17.6875 3.125 12.5C3.125 7.3125 7.3125 3.125 12.5 3.125ZM18.75 6.25L9.375 9.375L6.25 18.75L15.625 15.625L18.75 6.25ZM12.5 10.9375C13.375 10.9375 14.0625 11.625 14.0625 12.5C14.0625 13.375 13.375 14.0625 12.5 14.0625C11.625 14.0625 10.9375 13.375 10.9375 12.5C10.9375 11.625 11.625 10.9375 12.5 10.9375Z" fill="#111111"/>
</svg>
