<svg width="34" height="34" viewBox="0 0 34 34" fill="none" xmlns="http://www.w3.org/2000/svg">
<path d="M24.0265 8.74083C26.8599 10.71 28.8149 13.8408 29.2116 17.4533M4.94405 17.5242C5.12216 15.7918 5.66954 14.1178 6.54929 12.6149C7.42904 11.112 8.62073 9.8151 10.0441 8.81166M11.6024 29.665C13.2457 30.5008 15.1157 30.9683 17.0849 30.9683C18.9832 30.9683 20.7682 30.5433 22.3691 29.7642M17.0849 10.9083C18.1294 10.9083 19.1311 10.4934 19.8697 9.75482C20.6083 9.01624 21.0232 8.01451 21.0232 6.97C21.0232 5.92548 20.6083 4.92375 19.8697 4.18517C19.1311 3.44659 18.1294 3.03166 17.0849 3.03166C16.0404 3.03166 15.0386 3.44659 14.3001 4.18517C13.5615 4.92375 13.1466 5.92548 13.1466 6.97C13.1466 8.01451 13.5615 9.01624 14.3001 9.75482C15.0386 10.4934 16.0404 10.9083 17.0849 10.9083ZM6.84239 28.22C7.8869 28.22 8.88863 27.8051 9.62721 27.0665C10.3658 26.3279 10.7807 25.3262 10.7807 24.2817C10.7807 23.2371 10.3658 22.2354 9.62721 21.4968C8.88863 20.7583 7.8869 20.3433 6.84239 20.3433C5.79787 20.3433 4.79614 20.7583 4.05756 21.4968C3.31898 22.2354 2.90405 23.2371 2.90405 24.2817C2.90405 25.3262 3.31898 26.3279 4.05756 27.0665C4.79614 27.8051 5.79787 28.22 6.84239 28.22ZM27.1574 28.22C28.2019 28.22 29.2036 27.8051 29.9422 27.0665C30.6808 26.3279 31.0957 25.3262 31.0957 24.2817C31.0957 23.2371 30.6808 22.2354 29.9422 21.4968C29.2036 20.7583 28.2019 20.3433 27.1574 20.3433C26.1129 20.3433 25.1111 20.7583 24.3726 21.4968C23.634 22.2354 23.219 23.2371 23.219 24.2817C23.219 25.3262 23.634 26.3279 24.3726 27.0665C25.1111 27.8051 26.1129 28.22 27.1574 28.22Z" stroke="#111111" stroke-width="1.5" stroke-linecap="round" stroke-linejoin="round"/>
</svg>
