<svg width="16" height="16" viewBox="0 0 16 16" fill="none" xmlns="http://www.w3.org/2000/svg">
<path d="M1.5 6.49999H3V10.5H2C1.86739 10.5 1.74021 10.5527 1.64645 10.6464C1.55268 10.7402 1.5 10.8674 1.5 11C1.5 11.1326 1.55268 11.2598 1.64645 11.3535C1.74021 11.4473 1.86739 11.5 2 11.5H14C14.1326 11.5 14.2598 11.4473 14.3536 11.3535C14.4473 11.2598 14.5 11.1326 14.5 11C14.5 10.8674 14.4473 10.7402 14.3536 10.6464C14.2598 10.5527 14.1326 10.5 14 10.5H13V6.49999H14.5C14.6088 6.49989 14.7146 6.4643 14.8013 6.39863C14.888 6.33296 14.951 6.24079 14.9806 6.13611C15.0102 6.03143 15.0049 5.91994 14.9654 5.81857C14.9259 5.71719 14.8545 5.63146 14.7619 5.57437L8.26188 1.57437C8.18311 1.52594 8.09246 1.50031 8 1.50031C7.90754 1.50031 7.81689 1.52594 7.73812 1.57437L1.23812 5.57437C1.14552 5.63146 1.07406 5.71719 1.03458 5.81857C0.995107 5.91994 0.989773 6.03143 1.01939 6.13611C1.04901 6.24079 1.11195 6.33296 1.19869 6.39863C1.28542 6.4643 1.39121 6.49989 1.5 6.49999ZM4 6.49999H6V10.5H4V6.49999ZM9 6.49999V10.5H7V6.49999H9ZM12 10.5H10V6.49999H12V10.5ZM8 2.58687L12.7338 5.49999H3.26625L8 2.58687ZM15.5 13C15.5 13.1326 15.4473 13.2598 15.3536 13.3535C15.2598 13.4473 15.1326 13.5 15 13.5H1C0.867392 13.5 0.740215 13.4473 0.646447 13.3535C0.552678 13.2598 0.5 13.1326 0.5 13C0.5 12.8674 0.552678 12.7402 0.646447 12.6464C0.740215 12.5527 0.867392 12.5 1 12.5H15C15.1326 12.5 15.2598 12.5527 15.3536 12.6464C15.4473 12.7402 15.5 12.8674 15.5 13Z" fill="#3A82F8"/>
</svg>
