<svg width="28" height="28" viewBox="0 0 28 28" fill="none" xmlns="http://www.w3.org/2000/svg">
<path d="M22.0615 17.1407C22.0615 18.6457 23.2982 19.8707 24.8032 19.8707C24.8032 24.2457 23.7065 25.3423 19.3315 25.3423H8.38817C4.01317 25.3423 2.9165 24.2457 2.9165 19.8707V19.334C3.64269 19.3309 4.33826 19.0411 4.85176 18.5276C5.36526 18.0141 5.6551 17.3185 5.65817 16.5923C5.6551 15.8661 5.36526 15.1706 4.85176 14.6571C4.33826 14.1436 3.64269 13.8537 2.9165 13.8507V13.314C2.92817 8.939 4.01317 7.84233 8.38817 7.84233H19.3198C23.6948 7.84233 24.7915 8.939 24.7915 13.314V14.4107C23.2865 14.4107 22.0615 15.624 22.0615 17.1407Z" stroke="black" stroke-width="1.5" stroke-linecap="round" stroke-linejoin="round"/>
<path d="M18.9126 7.84351H8.30762L11.7259 4.42517C14.5143 1.63684 15.9143 1.63684 18.7026 4.42517L19.4026 5.12517C18.6676 5.86017 18.4926 6.94517 18.9126 7.84351Z" stroke="black" stroke-width="1.5" stroke-linecap="round" stroke-linejoin="round"/>
<path d="M11.5254 7.84351V25.3435" stroke="black" stroke-width="1.5" stroke-linecap="round" stroke-linejoin="round" stroke-dasharray="5 5"/>
</svg>
