<svg width="32" height="10" viewBox="0 0 32 10" fill="none" xmlns="http://www.w3.org/2000/svg">
<g clip-path="url(#clip0_11_649)">
<path d="M31.8919 2.95071C31.6014 2.12315 30.8098 1.52889 29.8801 1.52889H29.8606C29.2562 1.52889 28.7115 1.77953 28.3237 2.18196C27.9354 1.77953 27.3906 1.52889 26.7869 1.52889H26.7674C26.2361 1.52889 25.7504 1.72277 25.3774 2.04356V1.88043C25.3646 1.71793 25.2305 1.59025 25.0649 1.59025H23.6387C23.4642 1.59025 23.3234 1.73068 23.3234 1.90504V9.62265C23.3234 9.79713 23.4644 9.93744 23.6387 9.93744H25.0649C25.2238 9.93744 25.3547 9.81907 25.3755 9.66601L25.3749 4.12571C25.3749 4.10632 25.3755 4.08833 25.3776 4.07022C25.4004 3.8229 25.5821 3.61971 25.8693 3.5942H26.1323C26.2523 3.60492 26.3537 3.64701 26.4334 3.71053C26.5576 3.80874 26.6266 3.95989 26.6266 4.12571L26.632 9.63872C26.632 9.81321 26.7735 9.95428 26.9472 9.95428H28.3734C28.5417 9.95428 28.6787 9.8206 28.6868 9.65415L28.6861 4.11844C28.6855 3.93655 28.77 3.77213 28.9182 3.67456C28.9913 3.62775 29.0792 3.59637 29.1805 3.58693H29.4434C29.752 3.61372 29.9385 3.84701 29.9378 4.11844L29.9432 9.62405C29.9432 9.79854 30.0848 9.93884 30.2585 9.93884H31.6846C31.8583 9.93884 31.9999 9.79841 31.9999 9.62405V3.70275C31.9999 3.29892 31.9543 3.12711 31.8919 2.95071ZM22.2368 1.6104H21.4211V0.289481C21.4211 0.131063 21.2923 0.00274658 21.1333 0.00274658C21.1145 0.00274658 21.0965 0.00542515 21.0789 0.00874148C20.1746 0.256063 20.3557 1.50415 18.7049 1.6104H18.5445C18.5204 1.6104 18.4976 1.61372 18.4754 1.61844H18.4741L18.4754 1.61907C18.3345 1.65045 18.2285 1.77481 18.2285 1.92456V3.34586C18.2285 3.51895 18.3701 3.66002 18.5444 3.66002H19.4051L19.4038 9.68642C19.4038 9.85823 19.5433 9.99726 19.7157 9.99726H21.1258C21.2976 9.99726 21.4371 9.85823 21.4371 9.68642L21.4377 3.66002H22.2367C22.4104 3.66002 22.552 3.51895 22.552 3.34586V1.92469C22.5522 1.75147 22.4107 1.6104 22.2368 1.6104Z" fill="#54C1F0"/>
<path d="M17.1057 1.61039H15.6795C15.5058 1.61039 15.3649 1.75146 15.3649 1.92455V4.8632C15.3615 5.04509 15.214 5.19075 15.0308 5.19075H14.4338C14.2487 5.19075 14.0991 5.04241 14.0991 4.85784L14.0937 1.92455C14.0937 1.75146 13.9521 1.61039 13.7784 1.61039H12.3521C12.1777 1.61039 12.0369 1.75146 12.0369 1.92455V5.14534C12.0369 6.36868 12.9123 7.241 14.1405 7.241C14.1405 7.241 15.0623 7.241 15.0904 7.24636C15.2568 7.26511 15.3862 7.40414 15.3862 7.57532C15.3862 7.74445 15.2594 7.88284 15.095 7.9035C15.087 7.90478 15.0796 7.90682 15.0708 7.90822L12.9852 7.91562C12.8108 7.91562 12.67 8.05669 12.67 8.22978V9.65032C12.67 9.82417 12.8109 9.96447 12.9852 9.96447H15.317C16.5459 9.96447 17.4207 9.09279 17.4207 7.86881V1.92468C17.4209 1.75146 17.2801 1.61039 17.1057 1.61039ZM3.42656 1.61014H0.309248C0.13824 1.61014 0 1.7484 0 1.9183V3.31078C0 3.31345 0.00064 3.31613 0.00064 3.31881C0.00064 3.32544 0 3.3322 0 3.3382V9.64049C0 9.81167 0.128768 9.95134 0.288512 9.95529H1.74157C1.91526 9.95529 2.05683 9.81486 2.05683 9.64113L2.06221 7.48131H3.42669C4.56845 7.48131 5.3641 6.6919 5.3641 5.54942V3.5447C5.36397 2.40223 4.56832 1.61014 3.42656 1.61014ZM3.30112 5.09152C3.30112 5.27532 3.15149 5.42506 2.96704 5.42506L2.06208 5.4257V3.6683H2.96704C3.15149 3.6683 3.30112 3.81664 3.30112 4.00121V5.09152ZM8.99187 1.61817H7.01299C6.83789 1.61817 6.69632 1.75057 6.69632 1.91294V2.46575C6.69632 2.46907 6.69696 2.47315 6.69696 2.47646C6.69696 2.48042 6.69632 2.4845 6.69632 2.48845V3.24585C6.69632 3.41766 6.84659 3.55797 7.03168 3.55797H8.9161C9.06496 3.58131 9.1831 3.6896 9.19987 3.85873V4.0419C9.1831 4.203 9.06637 4.3206 8.92416 4.33399H7.99104C6.74995 4.33399 5.86586 5.15555 5.86586 6.30937V7.9618C5.86586 9.10886 6.62592 9.92506 7.85818 9.92506H10.4443C10.9085 9.92506 11.2849 9.57481 11.2849 9.14356V3.75134C11.2849 2.44381 10.6086 1.61817 8.99187 1.61817ZM9.21869 7.77289C9.21869 7.791 9.216 7.80835 9.21331 7.82506C9.20995 7.84075 9.20546 7.85619 9.19987 7.87123C9.15558 7.9956 9.03078 8.08578 8.88256 8.08578H8.2889C8.10381 8.08578 7.95277 7.94534 7.95277 7.77289V7.50478C7.95277 7.50146 7.95213 7.49815 7.95213 7.4947L7.95277 6.78144V6.55822L7.95341 6.55618C7.95405 6.38437 8.10368 6.24534 8.28877 6.24534H8.88243C9.06829 6.24534 9.21856 6.38501 9.21856 6.55822V7.77289H9.21869Z" fill="#233266"/>
</g>
<defs>
<clipPath id="clip0_11_649">
<rect width="32" height="10" fill="white"/>
</clipPath>
</defs>
</svg>
