<svg width="24" height="24" viewBox="0 0 24 24" fill="none" xmlns="http://www.w3.org/2000/svg">
<path d="M3.74286 21.2571H7.85714V13.0286H16.0857V21.2571H20.2V8.91428L11.9714 2.74286L3.74286 8.91428V21.2571ZM3.74286 24C2.98857 24 2.34263 23.7312 1.80503 23.1936C1.26743 22.656 0.999088 22.0105 1 21.2571V8.91428C1 8.48 1.09737 8.06857 1.29212 7.68C1.48686 7.29143 1.7552 6.97143 2.09715 6.72L10.3257 0.548571C10.5771 0.365714 10.84 0.228571 11.1143 0.137143C11.3886 0.0457141 11.6743 0 11.9714 0C12.2686 0 12.5543 0.0457141 12.8286 0.137143C13.1029 0.228571 13.3657 0.365714 13.6171 0.548571L21.8457 6.72C22.1886 6.97143 22.4574 7.29143 22.6521 7.68C22.8469 8.06857 22.9438 8.48 22.9429 8.91428V21.2571C22.9429 22.0114 22.6741 22.6574 22.1365 23.195C21.5989 23.7326 20.9534 24.0009 20.2 24H13.3429V15.7714H10.6V24H3.74286Z" fill="#111111"/>
</svg>
