<svg width="33" height="17" viewBox="0 0 33 17" fill="none" xmlns="http://www.w3.org/2000/svg">
<path fill-rule="evenodd" clip-rule="evenodd" d="M26.3115 12.155L30.2501 8.45325L28.3845 4.62372L26.3115 12.155Z" fill="#097939"/>
<path fill-rule="evenodd" clip-rule="evenodd" d="M24.9849 12.155L28.9234 8.45325L27.0578 4.62372L24.9849 12.155Z" fill="#ED752E"/>
<path fill-rule="evenodd" clip-rule="evenodd" d="M6.16268 4.66649L4.50443 10.7511L10.3914 10.7936L12.0084 4.66649H13.5008L11.562 11.7895C11.4878 12.0615 11.2051 12.2825 10.9309 12.2825H3.38519C2.92759 12.2825 2.65643 11.9142 2.78018 11.4608L4.62928 4.66649H6.16268ZM24.3627 4.62399H25.8552L23.7822 12.2825H22.2477L24.3627 4.62399ZM13.6669 7.81489L21.1293 7.77239L21.627 6.1554H14.0398L14.4957 4.6662L22.5807 4.5897C23.084 4.58489 23.3837 4.98637 23.2512 5.48702L22.4894 8.35549C22.3566 8.85585 21.8404 9.2613 21.3372 9.2613H14.6618L13.8748 12.41H12.4228L13.6669 7.81489Z" fill="#747474"/>
</svg>
