<svg width="26" height="33" viewBox="0 0 26 33" fill="none" xmlns="http://www.w3.org/2000/svg">
<g clip-path="url(#clip0_98_2289)">
<path d="M19.8603 29.1178V30.556C19.8603 31.3188 19.6353 32.0505 19.2348 32.5899C18.8343 33.1294 18.2911 33.4324 17.7248 33.4324H2.77609C1.59088 33.4324 0.640569 32.138 0.640569 30.556V10.4209C0.640569 9.65804 0.86556 8.92641 1.26605 8.38697C1.66654 7.84754 2.20972 7.54448 2.77609 7.54448H17.7248C18.2911 7.54448 18.8343 7.84754 19.2348 8.38697C19.6353 8.92641 19.8603 9.65804 19.8603 10.4209V11.8591H10.2504C9.06521 11.8591 8.1149 13.1535 8.1149 14.7356V26.2413C8.1149 27.0042 8.33989 27.7358 8.74038 28.2753C9.14087 28.8147 9.68405 29.1178 10.2504 29.1178M10.2504 26.2413H20.928V14.7356H10.2504M14.5215 22.6458C14.0967 22.6458 13.6893 22.4185 13.3889 22.0139C13.0886 21.6093 12.9198 21.0606 12.9198 20.4884C12.9198 19.9163 13.0886 19.3676 13.3889 18.963C13.6893 18.5584 14.0967 18.3311 14.5215 18.3311C14.9462 18.3311 15.3536 18.5584 15.654 18.963C15.9544 19.3676 16.1231 19.9163 16.1231 20.4884C16.1231 21.0606 15.9544 21.6093 15.654 22.0139C15.3536 22.4185 14.9462 22.6458 14.5215 22.6458Z" fill="white"/>
</g>
<defs>
<clipPath id="clip0_98_2289">
<rect width="25.1695" height="32.4118" fill="white" transform="scale(1.01815)"/>
</clipPath>
</defs>
</svg>
